<svg width="12.005859" height="12.010742" viewBox="0 0 12.0059 12.0107" fill="none" xmlns="http://www.w3.org/2000/svg" xmlns:xlink="http://www.w3.org/1999/xlink">
	<desc>
			Created with Pixso.
	</desc>
	<defs/>
	<path id="Vector" d="M4 6C4 4.89 4.89 4 6 4C7.1 4 8 4.89 8 6C8 7.11 7.1 8 6 8C4.89 8 4 7.11 4 6ZM2.91 6C2.91 7.7 4.3 9.08 6 9.08C7.7 9.08 9.08 7.7 9.08 6C9.08 4.3 7.7 2.92 6 2.92C4.3 2.92 2.91 4.3 2.91 6ZM8.48 2.79C8.48 2.94 8.52 3.08 8.6 3.19C8.68 3.31 8.8 3.41 8.93 3.46C9.06 3.52 9.2 3.53 9.34 3.5C9.48 3.47 9.61 3.41 9.71 3.3C9.81 3.2 9.88 3.08 9.91 2.94C9.94 2.8 9.92 2.65 9.87 2.52C9.82 2.39 9.72 2.27 9.6 2.2C9.49 2.12 9.35 2.07 9.2 2.07L9.2 2.07C9.01 2.07 8.83 2.15 8.69 2.29C8.56 2.42 8.48 2.6 8.48 2.79ZM3.57 10.89C2.99 10.86 2.67 10.76 2.46 10.68C2.18 10.57 1.98 10.44 1.77 10.23C1.56 10.02 1.43 9.82 1.32 9.54C1.24 9.33 1.14 9.01 1.11 8.43C1.08 7.79 1.08 7.6 1.08 6C1.08 4.4 1.08 4.21 1.11 3.57C1.14 2.99 1.24 2.67 1.32 2.46C1.43 2.18 1.56 1.98 1.77 1.77C1.98 1.56 2.18 1.43 2.46 1.32C2.67 1.24 2.99 1.14 3.57 1.11C4.21 1.08 4.4 1.08 6 1.08C7.6 1.08 7.79 1.08 8.42 1.11C9.01 1.14 9.33 1.24 9.54 1.32C9.82 1.43 10.02 1.56 10.23 1.77C10.44 1.98 10.57 2.18 10.68 2.46C10.76 2.67 10.86 2.99 10.89 3.57C10.91 4.21 10.92 4.4 10.92 6C10.92 7.6 10.91 7.79 10.89 8.43C10.86 9.01 10.76 9.33 10.68 9.54C10.57 9.82 10.44 10.02 10.23 10.23C10.02 10.44 9.82 10.57 9.54 10.68C9.33 10.76 9.01 10.86 8.42 10.89C7.79 10.92 7.6 10.92 6 10.92C4.4 10.92 4.21 10.92 3.57 10.89ZM3.52 0.03C2.88 0.06 2.45 0.16 2.07 0.31C1.67 0.46 1.34 0.67 1 1C0.67 1.34 0.46 1.67 0.31 2.07C0.16 2.45 0.06 2.89 0.03 3.52C0 4.16 0 4.37 0 6C0 7.63 0 7.84 0.03 8.48C0.06 9.12 0.16 9.55 0.31 9.93C0.46 10.33 0.67 10.66 1 11C1.34 11.33 1.67 11.54 2.07 11.69C2.45 11.84 2.88 11.94 3.52 11.97C4.16 12 4.37 12.01 6 12.01C7.63 12.01 7.83 12 8.47 11.97C9.11 11.94 9.55 11.84 9.93 11.69C10.33 11.54 10.66 11.33 11 11C11.33 10.66 11.53 10.33 11.69 9.93C11.83 9.55 11.94 9.12 11.97 8.48C12 7.84 12 7.63 12 6C12 4.37 12 4.16 11.97 3.52C11.94 2.89 11.83 2.45 11.69 2.07C11.53 1.67 11.33 1.34 11 1C10.66 0.67 10.33 0.46 9.93 0.31C9.55 0.16 9.11 0.06 8.47 0.03C7.83 0 7.63 0 6 0C4.37 0 4.16 0 3.52 0.03Z" fill="#FFFFFF" fill-opacity="1.000000" fill-rule="nonzero"/>
	<path id="Vector" d="M4 6C4 4.89 4.89 4 6 4C7.1 4 8 4.89 8 6C8 7.11 7.1 8 6 8C4.89 8 4 7.11 4 6ZM2.91 6C2.91 7.7 4.3 9.08 6 9.08C7.7 9.08 9.08 7.7 9.08 6C9.08 4.3 7.7 2.92 6 2.92C4.3 2.92 2.91 4.3 2.91 6ZM8.48 2.79C8.48 2.94 8.52 3.08 8.6 3.19C8.68 3.31 8.8 3.41 8.93 3.46C9.06 3.52 9.2 3.53 9.34 3.5C9.48 3.47 9.61 3.41 9.71 3.3C9.81 3.2 9.88 3.08 9.91 2.94C9.94 2.8 9.92 2.65 9.87 2.52C9.82 2.39 9.72 2.27 9.6 2.2C9.49 2.12 9.35 2.07 9.2 2.07L9.2 2.07C9.01 2.07 8.83 2.15 8.69 2.29C8.56 2.42 8.48 2.6 8.48 2.79ZM3.57 10.89C2.99 10.86 2.67 10.76 2.46 10.68C2.18 10.57 1.98 10.44 1.77 10.23C1.56 10.02 1.43 9.82 1.32 9.54C1.24 9.33 1.14 9.01 1.11 8.43C1.08 7.79 1.08 7.6 1.08 6C1.08 4.4 1.08 4.21 1.11 3.57C1.14 2.99 1.24 2.67 1.32 2.46C1.43 2.18 1.56 1.98 1.77 1.77C1.98 1.56 2.18 1.43 2.46 1.32C2.67 1.24 2.99 1.14 3.57 1.11C4.21 1.08 4.4 1.08 6 1.08C7.6 1.08 7.79 1.08 8.42 1.11C9.01 1.14 9.33 1.24 9.54 1.32C9.82 1.43 10.02 1.56 10.23 1.77C10.44 1.98 10.57 2.18 10.68 2.46C10.76 2.67 10.86 2.99 10.89 3.57C10.91 4.21 10.92 4.4 10.92 6C10.92 7.6 10.91 7.79 10.89 8.43C10.86 9.01 10.76 9.33 10.68 9.54C10.57 9.82 10.44 10.02 10.23 10.23C10.02 10.44 9.82 10.57 9.54 10.68C9.33 10.76 9.01 10.86 8.42 10.89C7.79 10.92 7.6 10.92 6 10.92C4.4 10.92 4.21 10.92 3.57 10.89ZM3.52 0.03C2.88 0.06 2.45 0.16 2.07 0.31C1.67 0.46 1.34 0.67 1 1C0.67 1.34 0.46 1.67 0.31 2.07C0.16 2.45 0.06 2.89 0.03 3.52C0 4.16 0 4.37 0 6C0 7.63 0 7.84 0.03 8.48C0.06 9.12 0.16 9.55 0.31 9.93C0.46 10.33 0.67 10.66 1 11C1.34 11.33 1.67 11.54 2.07 11.69C2.45 11.84 2.88 11.94 3.52 11.97C4.16 12 4.37 12.01 6 12.01C7.63 12.01 7.83 12 8.47 11.97C9.11 11.94 9.55 11.84 9.93 11.69C10.33 11.54 10.66 11.33 11 11C11.33 10.66 11.53 10.33 11.69 9.93C11.83 9.55 11.94 9.12 11.97 8.48C12 7.84 12 7.63 12 6C12 4.37 12 4.16 11.97 3.52C11.94 2.89 11.83 2.45 11.69 2.07C11.53 1.67 11.33 1.34 11 1C10.66 0.67 10.33 0.46 9.93 0.31C9.55 0.16 9.11 0.06 8.47 0.03C7.83 0 7.63 0 6 0C4.37 0 4.16 0 3.52 0.03Z" fill="#FFFFFF" fill-opacity="1.000000" fill-rule="nonzero"/>
</svg>
