<svg width="10.042969" height="9.608643" viewBox="0 0 10.043 9.60864" fill="none" xmlns="http://www.w3.org/2000/svg" xmlns:xlink="http://www.w3.org/1999/xlink">
	<desc>
			Created with Pixso.
	</desc>
	<defs/>
	<path id="Vector" d="M2.27 9.6L2.27 3.12L0.12 3.12L0.12 9.6L2.27 9.6L2.27 9.6ZM1.2 2.24C1.95 2.24 2.42 1.74 2.42 1.12C2.4 0.48 1.95 0 1.21 0C0.48 0 0 0.48 0 1.12C0 1.74 0.46 2.24 1.18 2.24L1.2 2.24L1.2 2.24ZM3.47 9.6L5.62 9.6L5.62 5.98C5.62 5.79 5.63 5.6 5.69 5.46C5.85 5.07 6.2 4.67 6.8 4.67C7.57 4.67 7.89 5.26 7.89 6.14L7.89 9.6L10.04 9.6L10.04 5.89C10.04 3.89 8.98 2.97 7.56 2.97C6.4 2.97 5.89 3.62 5.6 4.06L5.62 4.06L5.62 3.12L3.47 3.12C3.5 3.73 3.47 9.6 3.47 9.6L3.47 9.6Z" fill="#FFFFFF" fill-opacity="1.000000" fill-rule="nonzero"/>
</svg>
