<svg width="175" height="60" viewBox="0 0 175 60" fill="none" xmlns="http://www.w3.org/2000/svg">
<g clip-path="url(#clip0_75_1852)">
<path d="M68.8429 26.2463C67.5933 24.1626 64.9666 21.7981 59.5466 22.3498C56.2338 22.6897 53.073 24.0789 50.4022 26.3596C48.5105 27.9803 46.4131 29.9803 44.1932 32.0986C40.1698 35.9459 35.5339 40.3646 30.7019 43.8079C29.0456 17.867 24.0813 2.46802 16.5835 0.270975C13.0698 -0.753655 9.39435 1.15767 6.2433 5.66999C2.76881 10.6404 0 19.138 0 27.7143C0 33.8523 1.41626 40.0296 5.00346 44.9902C9.02681 50.5518 16.0395 52.8375 22.4445 50.6749C24.5714 49.9557 26.6933 48.9064 28.7858 47.6404C28.8054 48.0887 28.8299 48.5468 28.8495 49.005C28.8544 49.1577 28.8642 49.3104 28.8789 49.4582C29.2269 54.6503 33.211 58.9606 38.3566 59.7192C39.6356 59.9064 40.9049 60 42.1594 60C51.2794 60 59.7916 55.1675 65.4664 46.5813C70.3523 39.1872 71.7097 31.0148 68.8429 26.2463ZM21.7682 48.6454C16.2453 50.5124 10.198 48.537 6.72355 43.734C-1.29865 32.6454 2.37677 14.9114 7.9879 6.89659C9.48256 4.75866 12.516 1.31038 15.9856 2.32516C19.1562 3.2562 26.5659 9.33502 28.6535 45.202C26.3748 46.6651 24.0666 47.8621 21.7682 48.6404V48.6454ZM63.6875 45.3991C57.6991 54.4631 48.3488 59.0197 38.6604 57.6059C34.4999 56.9902 31.2851 53.5124 31.0009 49.3202C30.9911 49.1823 30.9862 49.0444 30.9813 48.9064C30.9421 48.0345 30.898 47.1675 30.849 46.3104C36.2004 42.6848 41.2822 37.8326 45.6584 33.6552C47.8588 31.5616 49.9317 29.5764 51.7841 27.9951C54.1217 26 56.8807 24.7784 59.7573 24.4877C63.2171 24.133 65.6625 25.0986 67.0199 27.3547C69.4261 31.3596 68.0588 38.7833 63.6875 45.3941V45.3991Z" fill="#007AFF" style="fill:#007AFF;fill:color(display-p3 0.0000 0.4784 1.0000);fill-opacity:1;"/>
<path d="M92.8949 24.9753H91.4738V15.8571H85.8479V24.9753H84.4268V14.5369H92.8949V24.9753Z" fill="#007AFF" style="fill:#007AFF;fill:color(display-p3 0.0000 0.4784 1.0000);fill-opacity:1;"/>
<path d="M102.784 24.9753H101.417V17.9457H97.7024V21.1871C97.7024 24.2068 97.0996 25.0344 95.6245 25.0344C95.3501 25.0344 95.0806 25.0049 94.9434 24.9802V23.7191H95.3256C96.1195 23.7191 96.3645 23.5812 96.3645 21.0295V16.7438H102.784V24.9852V24.9753Z" fill="#007AFF" style="fill:#007AFF;fill:color(display-p3 0.0000 0.4784 1.0000);fill-opacity:1;"/>
<path d="M112.267 23.7684V24.9753C112.213 25.0049 111.992 25.0295 111.801 25.0295C110.792 25.0295 110.38 24.6748 110.297 23.6847C109.694 24.5369 108.601 25.1132 107.371 25.1132C105.788 25.1132 104.695 24.1231 104.695 22.6699C104.695 20.6945 106.607 20.2265 108.219 19.9802C109.611 19.7585 110.13 19.6797 110.13 18.9901C110.13 18.2462 109.39 17.7832 108.297 17.7832C107.342 17.7832 106.411 18.197 105.729 18.9113L104.882 18.0344C105.783 17.128 106.959 16.6058 108.351 16.6058C110.238 16.6058 111.409 17.6206 111.409 19.2955V23.2216C111.409 23.6058 111.571 23.7733 111.953 23.7733H112.252L112.267 23.7684ZM110.11 21.8718V20.6108C109.811 20.8324 109.317 20.9113 108.415 21.0492C107.268 21.2413 106.067 21.4334 106.067 22.6403C106.067 23.4925 106.611 23.9605 107.543 23.9605C108.91 23.9605 110.11 22.9999 110.11 21.8718Z" fill="#007AFF" style="fill:#007AFF;fill:color(display-p3 0.0000 0.4784 1.0000);fill-opacity:1;"/>
<path d="M120.192 17.9458H117.188V24.9753H115.82V17.9458H112.816V16.7389H120.192V17.9458Z" fill="#007AFF" style="fill:#007AFF;fill:color(display-p3 0.0000 0.4784 1.0000);fill-opacity:1;"/>
<path d="M133.359 20.8571C133.359 23.3546 131.992 25.0591 130.134 25.0591C129.125 25.0591 128.302 24.6748 127.758 23.8768V27.7241H126.39V23.8226C125.817 24.6207 124.999 25.0591 124.014 25.0591C122.073 25.0591 120.789 23.4088 120.789 20.8571C120.789 18.3054 122.156 16.6551 124.014 16.6551C125.023 16.6551 125.846 17.0394 126.39 17.8078V13.9901H127.758V17.8916C128.331 17.0689 129.149 16.6551 130.134 16.6551C132.075 16.6551 133.359 18.3054 133.359 20.8571ZM126.474 20.8571C126.474 19.0147 125.626 17.8078 124.342 17.8078C123.058 17.8078 122.186 19.0147 122.186 20.8571C122.186 22.6995 123.034 23.9064 124.342 23.9064C125.65 23.9064 126.474 22.6995 126.474 20.8571ZM131.967 20.8571C131.967 19.0147 131.119 17.8078 129.835 17.8078C128.552 17.8078 127.679 19.0147 127.679 20.8571C127.679 22.6995 128.527 23.9064 129.835 23.9064C131.144 23.9064 131.967 22.6995 131.967 20.8571Z" fill="#007AFF" style="fill:#007AFF;fill:color(display-p3 0.0000 0.4784 1.0000);fill-opacity:1;"/>
<path d="M134.834 20.8571C134.834 18.33 136.53 16.601 138.931 16.601C141.332 16.601 143.028 18.2758 143.028 20.8571C143.028 23.4384 141.332 25.1133 138.931 25.1133C136.53 25.1133 134.834 23.4384 134.834 20.8571ZM141.636 20.8571C141.636 19.0147 140.573 17.8078 138.931 17.8078C137.289 17.8078 136.226 19.0147 136.226 20.8571C136.226 22.6995 137.289 23.9064 138.931 23.9064C140.573 23.9064 141.636 22.6995 141.636 20.8571Z" fill="#007AFF" style="fill:#007AFF;fill:color(display-p3 0.0000 0.4784 1.0000);fill-opacity:1;"/>
<path d="M152.917 20.8572C152.917 23.3842 151.388 25.1133 149.286 25.1133C148.109 25.1133 147.129 24.6453 146.497 23.7931V27.7192H145.13V16.734H146.277L146.384 18.1084C147.041 17.1478 148.08 16.5961 149.281 16.5961C151.466 16.5961 152.912 18.2709 152.912 20.8522L152.917 20.8572ZM151.525 20.8572C151.525 19.0148 150.516 17.8079 148.957 17.8079C147.399 17.8079 146.389 19.0148 146.389 20.8572C146.389 22.6995 147.399 23.9064 148.957 23.9064C150.516 23.9064 151.525 22.6995 151.525 20.8572Z" fill="#007AFF" style="fill:#007AFF;fill:color(display-p3 0.0000 0.4784 1.0000);fill-opacity:1;"/>
<path d="M164.311 24.9754H162.973V18.0788L160.435 24.9754H158.906L156.367 18.0788V24.9754H155.029V16.734H157.215L159.7 23.4926L162.16 16.734H164.316V24.9754H164.311Z" fill="#007AFF" style="fill:#007AFF;fill:color(display-p3 0.0000 0.4784 1.0000);fill-opacity:1;"/>
<path d="M173.793 23.7684V24.9753C173.739 25.0049 173.519 25.0295 173.327 25.0295C172.318 25.0295 171.906 24.6748 171.823 23.6847C171.22 24.5369 170.127 25.1132 168.897 25.1132C167.314 25.1132 166.222 24.1231 166.222 22.6699C166.222 20.6945 168.133 20.2265 169.745 19.9802C171.137 19.7585 171.656 19.6797 171.656 18.9901C171.656 18.2462 170.916 17.7832 169.824 17.7832C168.868 17.7832 167.937 18.197 167.256 18.9113L166.408 18.0344C167.31 17.128 168.486 16.6058 169.877 16.6058C171.764 16.6058 172.935 17.6206 172.935 19.2955V23.2216C172.935 23.6058 173.097 23.7733 173.479 23.7733H173.778L173.793 23.7684ZM171.637 21.8718V20.6108C171.338 20.8324 170.843 20.9113 169.941 21.0492C168.794 21.2413 167.594 21.4334 167.594 22.6403C167.594 23.4925 168.138 23.9605 169.069 23.9605C170.436 23.9605 171.637 22.9999 171.637 21.8718Z" fill="#007AFF" style="fill:#007AFF;fill:color(display-p3 0.0000 0.4784 1.0000);fill-opacity:1;"/>
<path d="M83.6084 36.6354C83.6084 33.4778 85.6029 31.2808 88.4697 31.2808C90.5721 31.2808 92.1305 32.3793 92.7577 34.3596L91.4444 34.8276C91.0082 33.3448 89.9693 32.5468 88.4648 32.5468C86.4409 32.5468 85.0492 34.1675 85.0492 36.6404C85.0492 39.1133 86.387 40.734 88.4648 40.734C89.9693 40.734 91.0033 39.9359 91.4444 38.4532L92.7577 38.9212C92.155 40.8177 90.5721 42 88.4697 42C85.5196 42 83.6084 39.8867 83.6084 36.6453V36.6354Z" fill="#007AFF" style="fill:#007AFF;fill:color(display-p3 0.0000 0.4784 1.0000);fill-opacity:1;"/>
<path d="M93.9092 37.7339C93.9092 35.2068 95.6048 33.4778 98.006 33.4778C100.407 33.4778 102.103 35.1527 102.103 37.7339C102.103 40.3152 100.407 41.9901 98.006 41.9901C95.6048 41.9901 93.9092 40.3152 93.9092 37.7339ZM100.711 37.7339C100.711 35.8916 99.6477 34.6847 98.006 34.6847C96.3644 34.6847 95.3009 35.8916 95.3009 37.7339C95.3009 39.5763 96.3644 40.7832 98.006 40.7832C99.6477 40.7832 100.711 39.5763 100.711 37.7339Z" fill="#007AFF" style="fill:#007AFF;fill:color(display-p3 0.0000 0.4784 1.0000);fill-opacity:1;"/>
<path d="M112.238 43.7734H110.954V41.8522H104.206V33.6108H105.573V40.6453H109.807V33.6108H111.175V40.6453H112.238V43.7783V43.7734Z" fill="#007AFF" style="fill:#007AFF;fill:color(display-p3 0.0000 0.4784 1.0000);fill-opacity:1;"/>
<path d="M114.208 30.8669H115.737V32.4039H114.208V30.8669ZM114.291 33.6157H115.659V41.8571H114.291V33.6157Z" fill="#007AFF" style="fill:#007AFF;fill:color(display-p3 0.0000 0.4784 1.0000);fill-opacity:1;"/>
<path d="M125.274 40.6453V41.8522C125.22 41.8817 124.999 41.9064 124.808 41.9064C123.798 41.9064 123.387 41.5517 123.303 40.5615C122.701 41.4137 121.608 41.9901 120.378 41.9901C118.795 41.9901 117.702 41 117.702 39.5467C117.702 37.5714 119.613 37.1034 121.226 36.8571C122.617 36.6354 123.137 36.5566 123.137 35.8669C123.137 35.1231 122.397 34.6601 121.304 34.6601C120.348 34.6601 119.417 35.0738 118.736 35.7881L117.888 34.9064C118.79 34 119.966 33.4778 121.358 33.4778C123.245 33.4778 124.416 34.4926 124.416 36.1724V40.0985C124.416 40.4827 124.578 40.6502 124.96 40.6502H125.259L125.274 40.6453ZM123.117 38.7487V37.4876C122.818 37.7093 122.323 37.7881 121.422 37.9261C120.275 38.1182 119.074 38.3103 119.074 39.5172C119.074 40.3694 119.618 40.8374 120.549 40.8374C121.917 40.8374 123.117 39.8768 123.117 38.7487Z" fill="#007AFF" style="fill:#007AFF;fill:color(display-p3 0.0000 0.4784 1.0000);fill-opacity:1;"/>
<path d="M134.069 41.8522H132.702V34.8177H128.988V38.0591C128.988 41.0788 128.385 41.9064 126.91 41.9064C126.635 41.9064 126.366 41.8768 126.229 41.8522V40.5911H126.611C127.405 40.5911 127.65 40.4532 127.65 37.9014V33.6157H134.069V41.8571V41.8522Z" fill="#007AFF" style="fill:#007AFF;fill:color(display-p3 0.0000 0.4784 1.0000);fill-opacity:1;"/>
<path d="M143.439 39.3547C143.439 40.867 142.317 41.8522 140.597 41.8522H136.799V33.6108H138.166V36.8522H140.597C142.317 36.8522 143.439 37.8424 143.439 39.3498V39.3547ZM142.047 39.3547C142.047 38.532 141.503 38.064 140.518 38.064H138.171V40.6453H140.518C141.503 40.6453 142.047 40.1773 142.047 39.3547Z" fill="#007AFF" style="fill:#007AFF;fill:color(display-p3 0.0000 0.4784 1.0000);fill-opacity:1;"/>
<path d="M152.456 33.6108V41.8522H151.089V38.2808H146.718V41.8522H145.351V33.6108H146.718V37.0197H151.089V33.6108H152.456Z" fill="#007AFF" style="fill:#007AFF;fill:color(display-p3 0.0000 0.4784 1.0000);fill-opacity:1;"/>
<path d="M162.292 33.6108V41.8522H160.954V35.4532L156.637 41.8522H155.191V33.6108H156.529V40.0099L160.847 33.6108H162.292Z" fill="#007AFF" style="fill:#007AFF;fill:color(display-p3 0.0000 0.4784 1.0000);fill-opacity:1;"/>
<path d="M170.485 41.8522L168.108 38.5813L165.678 41.8522H164.065L167.261 37.6502L164.257 33.6108H165.923L168.162 36.6601L170.431 33.6108H172.014L169.01 37.6207L172.151 41.8522H170.485Z" fill="#007AFF" style="fill:#007AFF;fill:color(display-p3 0.0000 0.4784 1.0000);fill-opacity:1;"/>
<path d="M91.5034 55.7881C91.5034 57.6551 89.9205 58.867 87.485 58.867C85.4071 58.867 83.9076 57.8522 83.2754 56.3103L84.5054 55.6502C84.971 56.8571 86.0638 57.6009 87.5095 57.6009C89.0678 57.6009 90.0774 56.8571 90.0774 55.6798C90.0774 54.665 89.2051 54.0049 87.7839 54.0049H86.4166V52.7438H87.8084C88.8718 52.7438 89.6951 52.1921 89.6951 51.2069C89.6951 50.1083 88.9012 49.4236 87.4801 49.4236C86.0589 49.4236 85.1572 50.1674 84.6917 51.2906L83.3783 50.8226C83.9811 49.2019 85.564 48.1576 87.5046 48.1576C89.7196 48.1576 91.1359 49.3103 91.1359 51.0985C91.1359 52.1133 90.6164 52.9113 89.7441 53.3497C90.8369 53.7635 91.4936 54.5862 91.4936 55.7931L91.5034 55.7881Z" fill="#007AFF" style="fill:#007AFF;fill:color(display-p3 0.0000 0.4784 1.0000);fill-opacity:1;"/>
<path d="M102.843 58.7291H101.505V51.8325L98.9668 58.7291H97.4379L94.8994 51.8325V58.7291H93.5615V50.4877H95.7472L98.2317 57.2463L100.692 50.4877H102.848V58.7291H102.843Z" fill="#007AFF" style="fill:#007AFF;fill:color(display-p3 0.0000 0.4784 1.0000);fill-opacity:1;"/>
<path d="M105.627 47.7389H107.156V49.2758H105.627V47.7389ZM105.71 50.4877H107.078V58.729H105.71V50.4877Z" fill="#007AFF" style="fill:#007AFF;fill:color(display-p3 0.0000 0.4784 1.0000);fill-opacity:1;"/>
<path d="M117.05 50.4877V58.7291H115.683V55.1576H111.312V58.7291H109.944V50.4877H111.312V53.8916H115.683V50.4877H117.05Z" fill="#007AFF" style="fill:#007AFF;fill:color(display-p3 0.0000 0.4784 1.0000);fill-opacity:1;"/>
</g>
<defs>
<clipPath id="clip0_75_1852">
<rect width="175" height="60" fill="white" style="fill:white;fill-opacity:1;"/>
</clipPath>
</defs>
</svg>
