<svg width="11.041016" height="9.368164" viewBox="0 0 11.041 9.36816" fill="none" xmlns="http://www.w3.org/2000/svg" xmlns:xlink="http://www.w3.org/1999/xlink">
	<desc>
			Created with Pixso.
	</desc>
	<defs/>
	<path id="Vector" d="M0.67 4.07C0.67 4.07 5.56 2.02 7.25 1.29C7.9 1 10.1 0.08 10.1 0.08C10.1 0.08 11.11 -0.33 11.03 0.66C11 1.06 10.78 2.48 10.55 4.02C10.21 6.19 9.84 8.56 9.84 8.56C9.84 8.56 9.79 9.23 9.31 9.35C8.83 9.46 8.04 8.94 7.9 8.83C7.78 8.74 5.78 7.43 5.05 6.8C4.85 6.62 4.62 6.28 5.08 5.87C6.09 4.91 7.3 3.73 8.04 2.97C8.38 2.63 8.72 1.82 7.3 2.8C5.3 4.22 3.33 5.55 3.33 5.55C3.33 5.55 2.87 5.84 2.03 5.58C1.18 5.32 0.19 4.97 0.19 4.97C0.19 4.97 -0.49 4.54 0.67 4.07Z" fill="#FFFFFF" fill-opacity="1.000000" fill-rule="nonzero"/>
</svg>
