<svg width="70.330078" height="59.999023" viewBox="0 0 70.3301 59.999" fill="none" xmlns="http://www.w3.org/2000/svg" xmlns:xlink="http://www.w3.org/1999/xlink">
	<desc>
			Created with Pixso.
	</desc>
	<defs/>
	<path id="Vector" d="M68.84 26.24C67.59 24.16 64.96 21.79 59.54 22.34C56.23 22.68 53.07 24.07 50.4 26.35C48.5 27.97 46.41 29.97 44.19 32.09C40.16 35.94 35.53 40.36 30.7 43.8C29.04 17.86 24.08 2.46 16.58 0.27C13.07 -0.76 9.39 1.15 6.24 5.66C2.76 10.63 0 19.13 0 27.71C0 33.85 1.41 40.02 5 44.98C9.02 50.55 16.03 52.83 22.44 50.67C24.57 49.95 26.69 48.9 28.78 47.63C28.8 48.08 28.83 48.54 28.84 49C28.85 49.15 28.86 49.3 28.87 49.45C29.22 54.64 33.21 58.95 38.35 59.71C39.63 59.9 40.9 59.99 42.16 59.99C51.27 59.99 59.79 55.16 65.46 46.58C70.35 39.18 71.7 31.01 68.84 26.24ZM21.76 48.64C16.24 50.51 10.19 48.53 6.72 43.73C-1.3 32.64 2.37 14.91 7.98 6.89C9.48 4.75 12.51 1.3 15.98 2.32C19.15 3.25 26.56 9.33 28.65 45.2C26.37 46.66 24.06 47.86 21.76 48.63L21.76 48.64ZM63.68 45.39C57.69 54.46 48.34 59.01 38.66 57.6C34.5 56.98 31.28 53.51 31 49.31C30.99 49.18 30.98 49.04 30.98 48.9C30.94 48.03 30.89 47.16 30.84 46.3C36.2 42.68 41.28 37.83 45.65 33.65C47.85 31.56 49.93 29.57 51.78 27.99C54.12 25.99 56.88 24.77 59.75 24.48C63.21 24.13 65.66 25.09 67.01 27.35C69.42 31.35 68.05 38.78 63.68 45.39L63.68 45.39Z" fill="#FFFFFF" fill-opacity="1.000000" fill-rule="nonzero"/>
</svg>
